<?xml version="1.0" encoding="iso-8859-1"?>
<!-- Generator: Adobe Illustrator 19.0.0, SVG Export Plug-In . SVG Version: 6.00 Build 0)  -->
<svg xmlns="http://www.w3.org/2000/svg" xmlns:xlink="http://www.w3.org/1999/xlink" version="1.1" id="Layer_1" x="0px" y="0px" viewBox="0 0 512.002 512.002" style="enable-background:new 0 0 512.002 512.002;" xml:space="preserve" width="512px" height="512px">
<g>
	<g>
		<path d="M504.798,129.721H440.72l7.058-12.568c1.949-3.469,0.716-7.862-2.753-9.81c-3.47-1.948-7.861-0.716-9.81,2.754    l-6.251,11.131l-5.603-11.856c-1.7-3.596-5.991-5.138-9.592-3.435c-3.598,1.7-5.136,5.995-3.436,9.592l9.882,20.907    c-5.428,7.733-13.712,12.828-23.22,14.147c-10.702,1.482-21.22-2.046-28.852-9.68l-9.928-9.95    c-18.984-18.972-44.227-29.42-71.076-29.42c-22.096,0-43.062,7.032-60.63,20.337c-16.995,12.87-29.682,31.154-35.727,51.486    c-1.134,3.814,1.04,7.825,4.853,8.959c3.816,1.134,7.825-1.04,8.959-4.853c5.175-17.411,16.048-33.074,30.613-44.104    c15.044-11.393,33.001-17.414,51.932-17.414c23.003,0,44.629,8.95,60.884,25.195l9.926,9.948    c10.861,10.861,25.814,15.879,41.028,13.769c13.771-1.91,25.747-9.383,33.453-20.726h65.165v6.616    c0,8.972-6.381,16.795-15.169,18.602l-33.32,6.828c-3.352,0.687-5.758,3.637-5.758,7.058c0,14.453-5.709,27.951-16.078,38.01    c-2.855,2.771-2.925,7.332-0.154,10.187c1.412,1.456,3.291,2.188,5.172,2.188c1.807,0,3.617-0.676,5.016-2.034    c11.759-11.408,18.809-26.297,20.199-42.42l27.821-5.702c15.459-3.179,26.68-16.938,26.68-32.717v-13.822    C512.002,132.946,508.777,129.721,504.798,129.721z" fill="#FFDA44"/>
	</g>
</g>
<g>
	<g>
		<path d="M418.115,237.121c-1.384-3.727-5.533-5.625-9.262-4.242c-5.319,1.976-10.916,3.074-16.634,3.264    c-2.475,0.083-4.734,1.431-5.982,3.571c-1.248,2.139-1.31,4.771-0.163,6.965l9.175,17.567c2.525,4.836,3.805,9.972,3.805,15.265    c0,10.534-4.948,19.936-12.642,26.003c3.22-8.661,2.535-18.55-2.403-26.898l-23.283-39.415l-1.049-1.767    c-1.94-3.276-2.181-7.156-0.664-10.643c1.52-3.494,4.531-5.966,8.261-6.781l32.233-7.05c3.887-0.85,6.35-4.691,5.499-8.578    c-0.849-3.887-4.688-6.347-8.577-5.499l-32.234,7.051c-8.301,1.817-15.006,7.322-18.394,15.108    c-2.128,4.889-2.703,10.122-1.765,15.151H314.66v-2.416c0-3.979-3.225-7.205-7.205-7.205c-3.979,0-7.205,3.226-7.205,7.205v8.175    c-2.069,5.202-8.191,22.948-8.191,50.792c0,32.955,8.306,67.662,24.709,103.316h-7.716l-41.04-63.592    c3.086-4.817,7.812-13.389,10.9-24.639c4.307-15.69,6.158-39.74-8.752-66.353c-0.49-0.875-7.788-10.343-7.788-10.343    c-12.466-15.098-13.545-36.188-2.685-52.478c2.207-3.311,1.313-7.783-1.998-9.991c-3.31-2.206-7.783-1.313-9.991,1.998    c-14.414,21.62-12.982,49.608,3.562,69.645l2.67,3.234l-8.139,16.534c-15.825,32.117-44.317,55.124-78.163,63.12    c-9.373,2.205-19.043,3.322-28.743,3.322c-34.993,0-66.661-14.517-89.297-37.841c14.945,8.822,32.36,13.888,50.935,13.888    c54.283,0,98.652-43.263,100.455-97.121c0.064-0.406,0.095-0.822,0.09-1.247l-0.033-2.261c-0.058-3.94-3.269-7.099-7.204-7.099    c-0.018,0-0.035,0-0.053,0c-3.958,0.029-7.153,3.247-7.153,7.205c0,47.483-38.625,86.113-86.102,86.113    s-86.102-38.631-86.102-86.113c0-3.979-3.237-7.205-7.216-7.205c-3.979,0-7.205,3.226-7.205,7.205    c0,76.582,62.303,138.885,138.885,138.885c10.809,0,21.591-1.247,32.05-3.707c38.055-8.99,70.051-34.787,87.784-70.778    l3.769-7.656c15.125,38.27-7.69,67.662-8.759,69.006c-1.952,2.42-2.13,5.818-0.446,8.43l45.79,70.95    c1.326,2.055,3.606,3.298,6.053,3.298h23.099c2.498,0,4.819-1.295,6.131-3.421c1.313-2.126,1.429-4.781,0.308-7.015    c-18.71-37.293-28.197-73.391-28.197-107.289c0-20.898,3.781-35.44,5.984-42.142h38.268l20.885,35.347    c3.943,6.664,2.871,15.144-2.607,20.621l-8.158,8.158c-2.061,2.061-2.678,5.16-1.562,7.851c1.115,2.692,3.742,4.448,6.656,4.448    c26.208,0,47.529-21.316,47.529-47.518c0-7.638-1.83-15.017-5.44-21.934l-4.336-8.301c3.463-0.692,6.864-1.657,10.184-2.89    C417.601,244.998,419.502,240.851,418.115,237.121z" fill="#FFDA44"/>
	</g>
</g>
<g>
	<g>
		<circle cx="452.647" cy="154.705" r="7.205" fill="#FFDA44"/>
	</g>
</g>
<g>
</g>
<g>
</g>
<g>
</g>
<g>
</g>
<g>
</g>
<g>
</g>
<g>
</g>
<g>
</g>
<g>
</g>
<g>
</g>
<g>
</g>
<g>
</g>
<g>
</g>
<g>
</g>
<g>
</g>
</svg>
